<?xml version="1.0" encoding="UTF-8" standalone="no"?>
<svg
   xmlns:serif="http://www.serif.com/"
   xmlns:dc="http://purl.org/dc/elements/1.1/"
   xmlns:cc="http://creativecommons.org/ns#"
   xmlns:rdf="http://www.w3.org/1999/02/22-rdf-syntax-ns#"
   xmlns:svg="http://www.w3.org/2000/svg"
   xmlns="http://www.w3.org/2000/svg"
   xmlns:sodipodi="http://sodipodi.sourceforge.net/DTD/sodipodi-0.dtd"
   xmlns:inkscape="http://www.inkscape.org/namespaces/inkscape"
   width="1269.6996"
   height="344.84354"
   viewBox="0 0 1269.6996 344.84354"
   version="1.1"
   xml:space="preserve"
   style="clip-rule:evenodd;fill-rule:evenodd;stroke-linejoin:round;stroke-miterlimit:2"
   id="svg32"
   sodipodi:docname="MDO-reverse.svg"
   inkscape:version="1.0.2 (e86c8708, 2021-01-15)"><metadata
   id="metadata38"><rdf:RDF><cc:Work
       rdf:about=""><dc:format>image/svg+xml</dc:format><dc:type
         rdf:resource="http://purl.org/dc/dcmitype/StillImage" /><dc:title /></cc:Work></rdf:RDF></metadata><defs
   id="defs36" /><sodipodi:namedview
   pagecolor="#314358"
   bordercolor="#666666"
   borderopacity="1"
   objecttolerance="10"
   gridtolerance="10"
   guidetolerance="10"
   inkscape:pageopacity="0"
   inkscape:pageshadow="2"
   inkscape:window-width="1440"
   inkscape:window-height="763"
   id="namedview34"
   showgrid="false"
   inkscape:zoom="0.48229806"
   inkscape:cx="702.04034"
   inkscape:cy="155.75606"
   inkscape:window-x="0"
   inkscape:window-y="25"
   inkscape:window-maximized="0"
   inkscape:current-layer="g56"
   inkscape:document-rotation="0" />
    <g
   transform="translate(-1235.3925,-605.87486)"
   id="g30">
        
    <g
   id="g56"><g
     id="MDO-logo-800-negative"
     transform="matrix(0.703542,0,0,0.440326,1271.85,623.941)">
            <rect
   x="-51.82"
   y="-41.028999"
   width="1137.1"
   height="783.15503"
   style="fill:none"
   id="rect10" />
            <g
   id="MDO-logo"
   serif:id="MDO logo"
   transform="matrix(0.772502,0,0,1.07527,-350.672,-263.62)">
                <g
   transform="matrix(3.94828,0,0,4.53215,1662.8,503.712)"
   id="g14">
                    <path
   d="m 0,93.275 c -25.716,0 -46.637,-20.921 -46.637,-46.636 C -46.637,20.923 -25.716,0 0,0 25.715,0 46.635,20.923 46.635,46.639 46.635,72.354 25.715,93.275 0,93.275 M 0,20.428 c -14.452,0 -26.21,11.758 -26.21,26.211 0,14.452 11.758,26.209 26.21,26.209 14.451,0 26.208,-11.757 26.208,-26.209 C 26.208,32.186 14.451,20.428 0,20.428"
   style="fill:#ffffff;fill-rule:nonzero"
   id="path12" />
                </g>
                <g
   transform="matrix(-2.79185,3.20471,2.79185,3.20471,1378,344.867)"
   id="g18">
                    <path
   d="M -17.84,6.444 H 11.164 L -2.669,-7.389 h -29.004 z"
   style="fill:#00aeef;fill-rule:nonzero"
   id="path16" />
                </g>
                <g
   transform="matrix(3.94828,0,0,4.53215,1269.79,411.578)"
   id="g22">
                    <path
   d="m 0,113.554 c -24.969,0 -45.285,-20.3 -45.312,-45.262 v -0.05 C -45.285,43.28 -24.969,22.979 0,22.979 H 13.832 V 43.407 H 0 c -13.714,0 -24.872,11.15 -24.885,24.86 0.013,13.71 11.171,24.86 24.885,24.86 13.273,0 24.072,-10.799 24.072,-24.072 V 0 h 20.427 v 69.055 c 0,24.537 -19.962,44.499 -44.499,44.499"
   style="fill:#ffffff;fill-rule:nonzero"
   id="path20" />
                </g>
                <g
   transform="matrix(3.94828,0,0,4.53215,870.599,916.3)"
   id="g26">
                    <path
   d="m 0,-90.848 c -14.692,0 -27.808,6.847 -36.347,17.51 -8.54,-10.663 -21.656,-17.51 -36.348,-17.51 -25.674,0 -46.561,20.886 -46.561,46.559 V 0 h 20.427 v -44.289 c 0,-14.409 11.724,-26.131 26.134,-26.131 14.41,0 26.134,11.722 26.134,26.131 V 0 h 20.428 v -44.289 c 0,-14.409 11.723,-26.131 26.133,-26.131 14.411,0 26.135,11.722 26.135,26.131 V 0 H 46.562 V -44.289 C 46.562,-69.962 25.674,-90.848 0,-90.848"
   style="fill:#ffffff;fill-rule:nonzero"
   id="path24" />
                </g>
            </g>
        </g><text
     xml:space="preserve"
     style="font-style:normal;font-weight:normal;font-size:160px;line-height:1.25;font-family:sans-serif;fill:#000000;fill-opacity:1;stroke:none"
     x="2082.9795"
     y="906.67487"
     id="text42"><tspan
       sodipodi:role="line"
       id="tspan40"
       x="2082.9795"
       y="906.67487"
       style="font-style:normal;font-variant:normal;font-weight:300;font-stretch:normal;font-size:160px;font-family:montserrat;-inkscape-font-specification:'montserrat Light';fill:#ffffff">FUSE</tspan></text></g></g>
</svg>
